<?xml version="1.0" encoding="UTF-8"?>
<svg version="1.1" xmlns="http://www.w3.org/2000/svg" width="45" height="45">
<path d="M0 0 C0.495 0.309375 0.99 0.61875 1.5 0.9375 C1.5 1.5975 1.5 2.2575 1.5 2.9375 C3.975 3.4325 3.975 3.4325 6.5 3.9375 C6.335 5.154375 6.17 6.37125 6 7.625 C5.9111145 13.84698492 9.42959729 18.12907766 12.84765625 23.01953125 C14.5 25.9375 14.5 25.9375 14.40234375 28.25390625 C13.05790502 30.76236119 11.10669769 31.02515581 8.5 31.9375 C8.005 32.9275 8.005 32.9275 7.5 33.9375 C6.84 33.9375 6.18 33.9375 5.5 33.9375 C5.2525 34.535625 5.005 35.13375 4.75 35.75 C3.31927475 38.25376919 1.9308418 39.41822388 -0.5 40.9375 C-1.16 40.9375 -1.82 40.9375 -2.5 40.9375 C-2.5 41.5975 -2.5 42.2575 -2.5 42.9375 C-13.05808656 43.3065205 -13.05808656 43.3065205 -17.5 40.9375 C-17.5 40.2775 -17.5 39.6175 -17.5 38.9375 C-18.098125 38.669375 -18.69625 38.40125 -19.3125 38.125 C-21.51819033 36.92762525 -22.93583187 35.89271016 -24.5 33.9375 C-24.5 32.9475 -24.5 31.9575 -24.5 30.9375 C-26.15 30.6075 -27.8 30.2775 -29.5 29.9375 C-30.2421875 28.3515625 -30.2421875 28.3515625 -30.5 25.9375 C-29.29444253 23.57880059 -28.08507879 21.50017658 -26.625 19.3125 C-25.87725183 18.15387315 -25.12984123 16.99502834 -24.3828125 15.8359375 C-23.76148438 14.87945313 -23.14015625 13.92296875 -22.5 12.9375 C-20.96554906 9.86859813 -21.95015711 7.23655734 -22.5 3.9375 C-20.52 3.6075 -18.54 3.2775 -16.5 2.9375 C-16.17 1.9475 -15.84 0.9575 -15.5 -0.0625 C-10.54378404 -3.06626725 -5.13071601 -2.18055431 0 0 Z M-12.5 0.9375 C-12.17 1.9275 -11.84 2.9175 -11.5 3.9375 C-10.38625 3.628125 -10.38625 3.628125 -9.25 3.3125 C-6.17669159 2.89341249 -5.07213134 3.31800989 -2.5 4.9375 C-2.83 3.6175 -3.16 2.2975 -3.5 0.9375 C-8.03140653 0.00369039 -8.03140653 0.00369039 -12.5 0.9375 Z M-11.5 5.9375 C-12.1814823 7.82929203 -12.1814823 7.82929203 -12.5 9.9375 C-11.84 10.5975 -11.18 11.2575 -10.5 11.9375 C-10.5 9.9575 -10.5 7.9775 -10.5 5.9375 C-10.83 5.9375 -11.16 5.9375 -11.5 5.9375 Z M-18.5 6.9375 C-19.26956136 9.28283951 -19.26956136 9.28283951 -19.5 11.9375 C-18.16621425 13.7729799 -18.16621425 13.7729799 -16.5 14.9375 C-15.18 14.2775 -13.86 13.6175 -12.5 12.9375 C-13.16 10.9575 -13.82 8.9775 -14.5 6.9375 C-15.82 6.9375 -17.14 6.9375 -18.5 6.9375 Z M-4.5 6.9375 C-4.83 7.5975 -5.16 8.2575 -5.5 8.9375 C-4.84 9.5975 -4.18 10.2575 -3.5 10.9375 C-3.83 9.6175 -4.16 8.2975 -4.5 6.9375 Z M-1.5 6.9375 C-2.16 9.2475 -2.82 11.5575 -3.5 13.9375 C-1.66299211 14.70992269 -1.66299211 14.70992269 0.5 14.9375 C2.37359395 13.89790481 2.37359395 13.89790481 3.5 11.9375 C3.75069913 9.31179296 3.75069913 9.31179296 3.5 6.9375 C1.85 6.9375 0.2 6.9375 -1.5 6.9375 Z M-22.5 15.9375 C-21.5 17.9375 -21.5 17.9375 -21.5 17.9375 Z M-18.26953125 19.09375 C-19.85134462 21.67206875 -21.32503776 24.14867911 -22.5 26.9375 C-22.17 27.5975 -21.84 28.2575 -21.5 28.9375 C-19.85 28.6075 -18.2 28.2775 -16.5 27.9375 C-16.17 28.5975 -15.84 29.2575 -15.5 29.9375 C-14.943125 30.205625 -14.38625 30.47375 -13.8125 30.75 C-11.5 31.9375 -11.5 31.9375 -8.5625 34.5 C-5.61772404 36.84380127 -4.16545616 37.6140774 -0.5 37.9375 C-0.5 37.2775 -0.5 36.6175 -0.5 35.9375 C-3.13684747 33.53929695 -3.13684747 33.53929695 -6.5 32.9375 C-6.17 32.2775 -5.84 31.6175 -5.5 30.9375 C-2.035 33.4125 -2.035 33.4125 1.5 35.9375 C1.83 34.9475 2.16 33.9575 2.5 32.9375 C-0.17247634 30.59462582 -0.17247634 30.59462582 -3.5 29.9375 C-3.5 29.2775 -3.5 28.6175 -3.5 27.9375 C-1.7421875 28.97916667 0.015625 30.02083333 1.7734375 31.0625 C3.47472667 32.08818348 3.47472667 32.08818348 5.5 31.9375 C3.99234953 27.4145486 0.64302971 25.14972152 -3.5 22.9375 C-6.9330005 23.53454357 -8.05987626 24.49737626 -10.5 26.9375 C-13.125 26.5625 -13.125 26.5625 -15.5 25.9375 C-15.10401298 23.06659413 -14.7676157 22.14834873 -12.4375 20.3125 C-11.798125 19.85875 -11.15875 19.405 -10.5 18.9375 C-10.5 18.2775 -10.5 17.6175 -10.5 16.9375 C-14.15299266 16.06773984 -15.83613661 16.12855388 -18.26953125 19.09375 Z M-10.3125 20.4375 C-11.10269531 21.0871875 -11.89289062 21.736875 -12.70703125 22.40625 C-13.29871094 22.9115625 -13.89039062 23.416875 -14.5 23.9375 C-14.17 24.5975 -13.84 25.2575 -13.5 25.9375 C-10.58482708 24.86348892 -8.72189824 24.15939824 -6.5 21.9375 C-1.55218502 22.0749393 1.0008288 24.7638331 4.5 27.9375 C5.16 27.6075 5.82 27.2775 6.5 26.9375 C5.52223933 25.45740357 4.5427506 23.97844856 3.5625 22.5 C3.01722656 21.67628906 2.47195312 20.85257813 1.91015625 20.00390625 C0.66197019 18.03764075 0.66197019 18.03764075 -0.5 16.9375 C-4.97614556 16.38088086 -6.91890209 17.60105996 -10.3125 20.4375 Z M-23.5 17.9375 C-24.33878455 19.22563342 -25.17086783 20.51813256 -26 21.8125 C-26.4640625 22.53179688 -26.928125 23.25109375 -27.40625 23.9921875 C-28.66336501 25.85610466 -28.66336501 25.85610466 -28.5 27.9375 C-27.51 28.2675 -26.52 28.5975 -25.5 28.9375 C-23.85 26.2975 -22.2 23.6575 -20.5 20.9375 C-21.16 20.6075 -21.82 20.2775 -22.5 19.9375 C-22.83 19.2775 -23.16 18.6175 -23.5 17.9375 Z M-20.5 17.9375 C-19.5 19.9375 -19.5 19.9375 -19.5 19.9375 Z M3.5 17.9375 C4.5 19.9375 4.5 19.9375 4.5 19.9375 Z M6.5 17.9375 C6.5 18.5975 6.5 19.2575 6.5 19.9375 C5.51 20.4325 5.51 20.4325 4.5 20.9375 C6.15 23.5775 7.8 26.2175 9.5 28.9375 C10.49 28.6075 11.48 28.2775 12.5 27.9375 C11.1302836 23.94249382 9.24277578 21.13740508 6.5 17.9375 Z M-21.5 29.9375 C-21.83 30.9275 -22.16 31.9175 -22.5 32.9375 C-21.18 32.6075 -19.86 32.2775 -18.5 31.9375 C-18.5 31.2775 -18.5 30.6175 -18.5 29.9375 C-19.49 29.9375 -20.48 29.9375 -21.5 29.9375 Z M-15.5 30.9375 C-17.5399719 32.30073743 -17.5399719 32.30073743 -19.5 33.9375 C-19.5 34.5975 -19.5 35.2575 -19.5 35.9375 C-17.55925139 35.66132467 -17.55925139 35.66132467 -15.5 34.9375 C-14.84 33.9475 -14.18 32.9575 -13.5 31.9375 C-14.16 31.6075 -14.82 31.2775 -15.5 30.9375 Z M-14.125 35.3125 C-15.71531408 36.83718321 -15.71531408 36.83718321 -15.5 38.9375 C-13.85 38.2775 -12.2 37.6175 -10.5 36.9375 C-10.5 35.9475 -10.5 34.9575 -10.5 33.9375 C-12.60031679 33.72218592 -12.60031679 33.72218592 -14.125 35.3125 Z M-10.5 37.9375 C-10.83 38.9275 -11.16 39.9175 -11.5 40.9375 C-10.18 40.6075 -8.86 40.2775 -7.5 39.9375 C-7.5 39.2775 -7.5 38.6175 -7.5 37.9375 C-8.49 37.9375 -9.48 37.9375 -10.5 37.9375 Z M-5.5 38.9375 C-5.83 39.5975 -6.16 40.2575 -6.5 40.9375 C-5.51 40.6075 -4.52 40.2775 -3.5 39.9375 C-4.16 39.6075 -4.82 39.2775 -5.5 38.9375 Z " fill="#00B98E" transform="translate(30.5,2.0625)"/>
</svg>
